<?xml version="1.0" encoding="utf-8"?>
<!-- Generator: Adobe Illustrator 21.0.0, SVG Export Plug-In . SVG Version: 6.00 Build 0)  -->
<svg version="1.1" id="icon-network" xmlns="http://www.w3.org/2000/svg" xmlns:xlink="http://www.w3.org/1999/xlink" x="0px" y="0px"
	 viewBox="0 0 68 68" style="enable-background:new 0 0 68 68;" xml:space="preserve">
<g>
	<g>
		<g>
			<g>
				<g>
					<path d="M32.7,23.8c-5.8,0-10.5,4.7-10.5,10.5s4.7,10.5,10.5,10.5c5.8,0,10.5-4.7,10.5-10.5C43.2,28.4,38.5,23.8,32.7,23.8z
						 M32.7,43c-4.9,0-8.8-3.9-8.8-8.8c0-4.9,3.9-8.8,8.8-8.8v0c4.9,0,8.8,3.9,8.8,8.8c0,0,0,0,0,0C41.5,39.1,37.6,43,32.7,43z"/>
				</g>
			</g>
			<g>
				<g>
					<path d="M41.5,34.2C41.5,34.2,41.5,34.2,41.5,34.2c0,4.9-3.9,8.8-8.8,8.8c-4.9,0-8.8-3.9-8.8-8.8c0-4.9,3.9-8.8,8.8-8.8v0
						C37.6,25.4,41.5,29.4,41.5,34.2z"/>
				</g>
			</g>
			<g>
				<g>
					<path d="M8.2,24.7c-3.7,0-6.8-3-6.8-6.8c0-3.7,3-6.8,6.8-6.8s6.8,3,6.8,6.8C14.9,21.7,11.9,24.7,8.2,24.7z M8.2,12.9
						c-2.8,0-5.1,2.3-5.1,5.1s2.3,5.1,5.1,5.1s5.1-2.3,5.1-5.1C13.3,15.2,11,12.9,8.2,12.9z"/>
				</g>
			</g>
			<g>
				<g>
					<path d="M16.7,55.9c-3.7,0-6.8-3-6.8-6.8c0-3.7,3-6.8,6.8-6.8c3.7,0,6.8,3,6.8,6.8l0,0C23.5,52.8,20.5,55.9,16.7,55.9z
						 M16.7,44c-2.8,0-5.1,2.3-5.1,5.1s2.3,5.1,5.1,5.1s5.1-2.3,5.1-5.1l0,0C21.8,46.3,19.5,44,16.7,44L16.7,44z"/>
				</g>
			</g>
			<g>
				<g>
					<path d="M52.6,67.7c-3.7,0-6.8-3-6.8-6.8c0-3.7,3-6.8,6.8-6.8c3.7,0,6.8,3,6.8,6.8l0,0C59.3,64.7,56.3,67.7,52.6,67.7z
						 M52.6,55.9c-2.8,0-5.1,2.3-5.1,5.1s2.3,5.1,5.1,5.1s5.1-2.3,5.1-5.1l0,0C57.7,58.2,55.4,55.9,52.6,55.9z"/>
				</g>
			</g>
			<g>
				<g>
					<path d="M59.8,30.6c-3.7,0-6.8-3-6.8-6.8s3-6.8,6.8-6.8c3.7,0,6.8,3,6.8,6.8l0,0C66.6,27.6,63.5,30.6,59.8,30.6z M59.8,18.7
						c-2.8,0-5.1,2.3-5.1,5.1s2.3,5.1,5.1,5.1s5.1-2.3,5.1-5.1l0,0C64.9,21,62.6,18.7,59.8,18.7L59.8,18.7z"/>
				</g>
			</g>
			<g>
				<g>
					<path d="M39.1,13.8c-3.7,0-6.8-3-6.8-6.8c0-3.7,3-6.8,6.8-6.8c3.7,0,6.8,3,6.8,6.8C45.8,10.7,42.8,13.8,39.1,13.8z M39.1,1.9
						C36.3,1.9,34,4.2,34,7s2.3,5.1,5.1,5.1s5.1-2.3,5.1-5.1v0C44.2,4.2,41.9,1.9,39.1,1.9z"/>
				</g>
			</g>
			<g>
				<g>
					<path d="M41.7,31.6c-0.5,0-0.8-0.3-0.9-0.8c0-0.4,0.2-0.7,0.5-0.8L54,25.2c0.4-0.2,0.9,0,1.1,0.5c0.2,0.4,0,0.9-0.5,1.1
						L42,31.5C41.9,31.6,41.8,31.6,41.7,31.6z"/>
				</g>
			</g>
			<g>
				<g>
					<path d="M49,57c-0.3,0-0.5-0.1-0.7-0.3L37.8,42.4c-0.3-0.4-0.2-0.9,0.2-1.2c0.4-0.3,0.9-0.2,1.2,0.2l10.6,14.3
						c0.3,0.4,0.2,0.9-0.2,1.1C49.4,57,49.2,57,49,57z"/>
				</g>
			</g>
			<g>
				<g>
					<path d="M21,45.9c-0.5,0-0.8-0.4-0.8-0.8c0-0.2,0.1-0.4,0.3-0.6l4.6-4.3c0.3-0.3,0.9-0.3,1.2,0.1c0.3,0.3,0.3,0.9-0.1,1.2l0,0
						l-4.6,4.3C21.4,45.8,21.2,45.9,21,45.9z"/>
				</g>
			</g>
			<g>
				<g>
					<path d="M24.7,29.7c-0.2,0-0.3,0-0.5-0.1l-11.5-7.6c-0.4-0.3-0.5-0.8-0.2-1.1c0.3-0.4,0.7-0.5,1.1-0.2l11.5,7.6
						c0.4,0.2,0.5,0.8,0.2,1.1C25.2,29.6,25,29.7,24.7,29.7z"/>
				</g>
			</g>
			<g>
				<g>
					<path d="M34.9,25.6h-0.2c-0.4-0.1-0.7-0.5-0.6-1l0,0l2.8-12.1c0.1-0.4,0.5-0.7,1-0.6c0.4,0.1,0.7,0.5,0.6,1l-2.8,12
						C35.6,25.4,35.3,25.7,34.9,25.6z"/>
				</g>
			</g>
		</g>
	</g>
</g>
</svg>
