<?xml version="1.0" encoding="utf-8"?>
<!-- Generator: Adobe Illustrator 21.0.0, SVG Export Plug-In . SVG Version: 6.00 Build 0)  -->
<svg version="1.1" id="Layer_1" xmlns="http://www.w3.org/2000/svg" xmlns:xlink="http://www.w3.org/1999/xlink" x="0px" y="0px"
	 viewBox="0 0 68 68" style="enable-background:new 0 0 68 68;" xml:space="preserve">
<g>
	<g>
		<g>
			<path d="M29.9,51.7c-1.8,0-3.5-0.4-5.2-1.3C22,49.1,20,46.7,19,43.8c-0.9-2.9-0.7-6,0.7-8.7c1.4-2.7,3.8-4.7,6.7-5.7
				c2.9-0.9,6-0.7,8.7,0.7c5.6,2.9,7.9,9.8,5,15.4l-0.2,0.4C37.8,49.6,33.9,51.7,29.9,51.7z M29.9,31.2c-0.9,0-1.9,0.1-2.8,0.4
				c-2.3,0.7-4.2,2.4-5.3,4.5c-1.1,2.2-1.3,4.6-0.6,6.9c0.7,2.3,2.4,4.2,4.5,5.3c4.4,2.2,9.7,0.6,12.1-3.7l0.2-0.3
				c2.3-4.4,0.5-9.9-4-12.2C32.7,31.5,31.3,31.2,29.9,31.2z"/>
		</g>
		<g>
			<path d="M16,27.2c-1,0-2.1-0.2-3.1-0.7c-1.6-0.9-2.8-2.3-3.4-4c-0.6-1.8-0.5-3.7,0.4-5.3L10,17c1.8-3.3,5.9-4.5,9.2-2.9
				c1.6,0.8,2.9,2.2,3.4,4c0.6,1.8,0.4,3.6-0.4,5.3l-0.1,0.2C20.8,25.9,18.4,27.2,16,27.2z M16,15.8c-1.6,0-3.2,0.9-4,2.4l-0.1,0.1
				c-0.6,1-0.6,2.2-0.2,3.4c0.4,1.2,1.2,2.1,2.3,2.7c2.2,1.1,4.8,0.2,6-1.9l0.1-0.1c0.5-1.1,0.6-2.3,0.2-3.5
				c-0.4-1.1-1.2-2.1-2.3-2.6C17.4,15.9,16.7,15.8,16,15.8z"/>
		</g>
		<g>
			<path d="M32.8,23.3c-1.6,0-3.3-0.4-4.9-1.2c-5.1-2.6-7.1-9.1-4.5-14.2l0.2-0.3c2.8-5,8.8-6.8,14-4.2c2.5,1.4,4.3,3.6,5.2,6.1
				c0.9,2.6,0.6,5.4-0.6,8l-0.2,0.3C40,21.3,36.5,23.3,32.8,23.3z M25.6,8.8L25.5,9c-2,3.9-0.4,8.9,3.5,11c3.9,2,8.7,0.6,10.9-3.3
				l0.1-0.2c1-2,1.1-4.2,0.5-6.2c-0.7-2-2.1-3.7-4-4.8C32.4,3.5,27.8,4.9,25.6,8.8L25.6,8.8z"/>
		</g>
		<g>
			<path d="M50.3,32c-1.3,0-2.6-0.3-3.8-0.9c-4.1-2.1-5.7-7.1-3.6-11.2l0.2-0.3c2.2-4,7.1-5.5,11.1-3.3c1.9,1,3.4,2.7,4.1,4.8
				c0.7,2.1,0.5,4.4-0.5,6.3l-0.2,0.3C56.1,30.5,53.2,32,50.3,32z M50.2,17.7c-2,0-4,1.1-5.1,3.1v0L45,21c-1.5,2.9-0.3,6.5,2.6,8
				c2.8,1.4,6.4,0.4,7.9-2.3l0.1-0.2c1.5-2.9,0.3-6.5-2.6-8C52.2,17.9,51.2,17.7,50.2,17.7z"/>
		</g>
		<g>
			<path d="M51.6,47.2c-1,0-1.9-0.2-2.8-0.7c-1.5-0.7-2.5-2-3-3.6c-0.5-1.6-0.3-3.2,0.4-4.7l0.1-0.2c1.7-3,5.3-4,8.2-2.4
				c3,1.5,4.1,5.2,2.6,8.2l-0.1,0.2C55.8,46.1,53.7,47.2,51.6,47.2z M48.3,39.2l-0.1,0.2c-0.4,0.9-0.5,1.9-0.2,2.9
				c0.3,1,1,1.7,1.9,2.2c1.8,0.9,4.1,0.3,5-1.5l0.1-0.2c0.9-1.8,0.2-4.1-1.6-5.1C51.4,36.7,49.3,37.3,48.3,39.2L48.3,39.2z"/>
		</g>
	</g>
	<g>
		<rect x="17.1" y="56.3" width="34.5" height="3"/>
	</g>
	<g>
		<rect x="22.6" y="61.3" width="23.7" height="3"/>
	</g>
</g>
</svg>
