<?xml version="1.0" encoding="utf-8"?>
<!-- Generator: Adobe Illustrator 21.0.0, SVG Export Plug-In . SVG Version: 6.00 Build 0)  -->
<svg version="1.1" id="icon-share" xmlns="http://www.w3.org/2000/svg" xmlns:xlink="http://www.w3.org/1999/xlink" x="0px" y="0px"
	 viewBox="0 0 161.7 161.7" style="enable-background:new 0 0 161.7 161.7;" xml:space="preserve">

<path fill="#333333" d="M81.4,0C36.8,0,0.6,36.2,0.6,80.8c0,44.6,36.2,80.8,80.8,80.8s80.8-36.2,80.8-80.8C162.3,36.2,126.1,0,81.4,0z"
	/>
<path fill="#FFFFFF" d="M97.9,60.9c7.7,0,14-6.3,14-14s-6.3-14-14-14s-14,6.3-14,14c0,2.2,0.5,4.2,1.4,6L57.4,71.6
	c-2.6-2.9-6.3-4.8-10.5-4.8c-7.7,0-14,6.3-14,14s6.3,14,14,14c4.1,0,7.7-1.8,10.3-4.6l28,18.7c-0.8,1.8-1.3,3.8-1.3,5.8
	c0,7.7,6.3,14,14,14s14-6.3,14-14s-6.3-14-14-14c-4.2,0-8,1.9-10.5,4.8L59.5,87c0.9-1.9,1.4-3.9,1.4-6.1c0-2.1-0.5-4.1-1.3-5.9
	l27.9-18.7C90.1,59.1,93.8,60.9,97.9,60.9z M97.9,104.8c5.5,0,10,4.5,10,10s-4.5,10-10,10s-10-4.5-10-10S92.4,104.8,97.9,104.8z
	 M46.9,90.8c-5.5,0-10-4.5-10-10s4.5-10,10-10s10,4.5,10,10S52.5,90.8,46.9,90.8z M97.9,36.9c5.5,0,10,4.5,10,10s-4.5,10-10,10
	s-10-4.5-10-10S92.4,36.9,97.9,36.9z"/>
</svg>
