<?xml version="1.0" encoding="utf-8"?>
<!-- Generator: Adobe Illustrator 21.0.0, SVG Export Plug-In . SVG Version: 6.00 Build 0)  -->
<svg version="1.1" id="Livello_1" xmlns="http://www.w3.org/2000/svg" xmlns:xlink="http://www.w3.org/1999/xlink" x="0px" y="0px"
	 viewBox="0 0 100 100" enable-background="new 0 0 100 100" xml:space="preserve">
<path d="M50,1.4C23.1,1.4,1.4,23.1,1.4,50S23.1,98.6,50,98.6S98.6,76.9,98.6,50S76.9,1.4,50,1.4z M75.1,42c0,0.5,0,1.1,0,1.6
	c0,16.6-12.6,35.7-35.7,35.7c-7.1,0-13.7-2.1-19.2-5.6c1,0.1,2,0.2,3,0.2c5.9,0,11.3-2,15.6-5.4c-5.5-0.1-10.1-3.7-11.7-8.7
	c0.8,0.1,1.5,0.2,2.4,0.2c1.1,0,2.3-0.2,3.3-0.4c-5.7-1.2-10.1-6.2-10.1-12.3c0-0.1,0-0.1,0-0.2c1.7,0.9,3.6,1.5,5.7,1.6
	c-3.4-2.2-5.6-6.1-5.6-10.4c0-2.3,0.6-4.5,1.7-6.3c6.2,7.6,15.4,12.6,25.9,13.1c-0.8-3.6-0.1-7.8,2.8-11.9c6.9-5.4,14.3-4,18.5,0.4
	c2.9-0.6,5.5-1.6,8-3c-0.9,2.9-2.9,5.4-5.5,6.9c2.5-0.3,5-1,7.2-2C79.7,38.1,77.6,40.3,75.1,42z"/>
</svg>
