<?xml version="1.0" encoding="utf-8"?>
<!-- Generator: Adobe Illustrator 21.0.0, SVG Export Plug-In . SVG Version: 6.00 Build 0)  -->
<svg version="1.1" id="icon-search" xmlns="http://www.w3.org/2000/svg" xmlns:xlink="http://www.w3.org/1999/xlink" x="0px"
	 y="0px" viewBox="0 0 161.7 161.7" style="enable-background:new 0 0 161.7 161.7;" xml:space="preserve">
<style type="text/css">
	.st0{fill:#333333;}
	.st1{fill:#FFFFFF;}
</style>
<path class="st0" d="M82.4,0C36.5-0.8-0.8,36.5,0,82.4c0.8,43.2,36.1,78.5,79.3,79.3c45.9,0.9,83.2-36.5,82.4-82.4
	C160.9,36.1,125.6,0.8,82.4,0z"/>
<path class="st1" d="M106.9,73.2c0-18.7-15.2-33.9-33.9-33.9c-18.7,0-33.9,15.2-33.9,33.9c0,18.7,15.2,33.9,33.9,33.9
	c8.7,0,16.7-3.3,22.7-8.7l24,24l2.8-2.8l-24-24.1C103.7,89.5,106.9,81.7,106.9,73.2z M73,103.1c-16.5,0-29.9-13.4-29.9-29.9
	c0-16.5,13.4-29.9,29.9-29.9c16.5,0,29.9,13.4,29.9,29.9C102.9,89.7,89.5,103.1,73,103.1z"/>
</svg>
