<?xml version="1.0" encoding="utf-8"?>
<!-- Generator: Adobe Illustrator 21.0.0, SVG Export Plug-In . SVG Version: 6.00 Build 0)  -->
<svg version="1.1" id="Layer_1" xmlns="http://www.w3.org/2000/svg" xmlns:xlink="http://www.w3.org/1999/xlink" x="0px" y="0px"
	 viewBox="0 0 161.7 161.7" style="enable-background:new 0 0 161.7 161.7;" xml:space="preserve">
<style type="text/css">
	.st0{fill:#333333;}
	.st1{fill:#FFFFFF;}
</style>
<g>
	<g>
		<path class="st0" d="M80.8,0C36.2,0,0,36.2,0,80.8s36.2,80.8,80.8,80.8s80.8-36.2,80.8-80.8S125.5,0,80.8,0z"/>
	</g>
	<path class="st1" d="M107.6,94.1c3.9-5.8,6.1-12.7,6.1-20.1c0-20-16.2-36.2-36.2-36.2c-20,0-36.2,16.3-36.2,36.2
		s16.3,36.2,36.2,36.2c7.4,0,14.3-2.3,20.1-6.1l20.8,20.8l10-10L107.6,94.1z M77.5,96c-12.2,0-22-9.9-22-22s9.9-22,22-22
		c12.2,0,22,9.9,22,22S89.7,96,77.5,96z"/>
</g>
</svg>
