<?xml version="1.0" encoding="utf-8"?>
<!-- Generator: Adobe Illustrator 21.0.0, SVG Export Plug-In . SVG Version: 6.00 Build 0)  -->
<svg version="1.1" id="Layer_1" xmlns="http://www.w3.org/2000/svg" xmlns:xlink="http://www.w3.org/1999/xlink" x="0px" y="0px"
	 viewBox="0 0 65.1 67.2" enable-background="new 0 0 65.1 67.2" xml:space="preserve">
<path d="M19.2,66.9c-4.4,0-8.9-1.8-12.4-5c-3.4-3.2-5.6-7.2-6.1-11.5c-0.5-4.2,0.7-8.2,3.3-11.1l6.1-6.7c2.5-2.8,6.2-4.3,10.3-4.3
	c1.9,0,3.8,0.3,5.6,0.9l-8.9,9.7c-0.1,0.1-0.2,0.2-0.2,0.3l-0.2,0.2l-5.3,5.8c-2.9,3.1-2.6,7.6,0.8,10.7c1.7,1.5,3.5,2.3,5.4,2.3
	c2,0,3.9-0.9,5.3-2.4l5.3-5.8l0.2-0.2c0.1-0.1,0.2-0.2,0.3-0.3l8.9-9.7c2.6,5.8,1.8,12-1.9,16.1l-6.1,6.7
	C26.9,65.4,23.2,66.9,19.2,66.9z"/>
<path d="M44.7,38.9c-1.9,0-3.8-0.3-5.6-0.9l14.6-16c2.9-3.2,2.6-7.7-0.7-10.7C51.4,9.8,49.5,9,47.6,9c-2,0-4,0.9-5.4,2.5L37,17.2
	l-0.1,0l-0.1,0.1l-9.3,10.2c-2.5-5.8-1.8-12,1.9-16.1l6.1-6.7c2.5-2.8,6.2-4.3,10.3-4.3c4.4,0,8.9,1.8,12.4,5
	c7,6.4,8.3,16.6,2.8,22.6L55,34.6C52.4,37.4,48.8,38.9,44.7,38.9C44.7,38.9,44.7,38.9,44.7,38.9z"/>
<path d="M23,49c-1.2,0-2.3-0.4-3.1-1.2l-0.3-0.3c-0.9-0.8-1.5-2-1.5-3.2s0.4-2.4,1.2-3.4L39,19.3c0.9-1,2.1-1.5,3.5-1.5
	c1.2,0,2.3,0.4,3.1,1.2l0.3,0.3c0.9,0.9,1.5,2,1.5,3.2c0.1,1.2-0.4,2.4-1.2,3.4L26.4,47.5C25.5,48.4,24.3,49,23,49
	C23,49,23,49,23,49z"/>
</svg>
