<?xml version="1.0" encoding="utf-8"?>
<!-- Generator: Adobe Illustrator 21.0.0, SVG Export Plug-In . SVG Version: 6.00 Build 0)  -->
<svg version="1.1" id="Layer_1" xmlns="http://www.w3.org/2000/svg" xmlns:xlink="http://www.w3.org/1999/xlink" x="0px" y="0px"
	 viewBox="0 0 161.7 161.7" style="enable-background:new 0 0 161.7 161.7;" xml:space="preserve">
<style type="text/css">
	.st0{fill:#333333;}
	.st1{fill:#FFFFFF;}
</style>
<g>
	<path class="st0" d="M80.8,0C36.2,0,0,36.2,0,80.8c0,44.6,36.2,80.8,80.8,80.8s80.8-36.2,80.8-80.8C161.7,36.2,125.5,0,80.8,0z"/>
	<path class="st1" d="M57.2,81.1c0,1.4-0.2,2.7-0.6,4l32,21.7c2.3-1.9,5.2-3,8.4-3c7.3,0,13.2,5.9,13.2,13.2s-5.9,13.2-13.2,13.2
		c-7.3,0-13.2-5.9-13.2-13.2c0-1.4,0.2-2.7,0.6-4l-32-21.7c-2.3,1.9-5.2,3-8.4,3c-7.3,0-13.2-5.9-13.2-13.2S36.7,67.9,44,67.9
		c3.2,0,6.1,1.1,8.4,3l32-21.7c-0.4-1.3-0.6-2.6-0.6-4c0-7.3,5.9-13.2,13.2-13.2c7.3,0,13.2,5.9,13.2,13.2s-5.9,13.2-13.2,13.2
		c-3.2,0-6.1-1.1-8.4-3l-32,21.7C57,78.4,57.2,79.7,57.2,81.1z"/>
</g>
</svg>
