<?xml version="1.0" encoding="utf-8"?>
<!-- Generator: Adobe Illustrator 21.0.0, SVG Export Plug-In . SVG Version: 6.00 Build 0)  -->
<svg version="1.1" id="icon-info" xmlns="http://www.w3.org/2000/svg" xmlns:xlink="http://www.w3.org/1999/xlink" x="0px" y="0px"
	 viewBox="0 0 161.7 161.7" style="enable-background:new 0 0 161.7 161.7;" xml:space="preserve">

<path fill="#333333" d="M82.4,0C36.5-0.8-0.8,36.5,0,82.4c0.8,43.2,36.1,78.5,79.3,79.3c45.9,0.9,83.2-36.5,82.4-82.4
	C160.9,36.1,125.6,0.8,82.4,0z"/>
<path fill="#FFFFFF" d="M80.9,60.1c7.5,0,13.6-6.1,13.6-13.6s-6.1-13.6-13.6-13.6c-7.5,0-13.6,6.1-13.6,13.6S73.3,60.1,80.9,60.1z
	 M80.9,36.9c5.3,0,9.6,4.3,9.6,9.6s-4.3,9.6-9.6,9.6c-5.3,0-9.6-4.3-9.6-9.6S75.5,36.9,80.9,36.9z"/>
<path fill="#FFFFFF" d="M95.7,122c-2.5-0.5-3.2-1.1-3.4-1.3l-0.1-0.1c-0.2-0.3-0.5-1.3-0.5-3.5V69.6H64.6v6.5l1.6,0.3
	c2.9,0.6,3.6,1.1,3.7,1.3c0.2,0.2,0.8,1.1,0.8,3.7v35.2c0,2.1-0.4,3.6-1.1,4.2l-0.1,0.1c-0.3,0.3-1.4,0.8-3.2,1.1l-1.7,0.2v6.6h32.9
	v-6.5L95.7,122z M70.6,124.8c0.6-0.3,1.1-0.6,1.5-1.1c1.6-1.4,2.5-3.9,2.5-7.2V81.4c0-2.8-0.6-4.9-1.7-6.3c-0.5-0.6-1.2-1.1-2.2-1.5
	h16.9v43.6c0,3.2,0.6,5.4,1.9,6.5c0.5,0.4,1.1,0.8,1.8,1.2H70.6z"/>
</svg>
