<?xml version="1.0" encoding="utf-8"?>
<!-- Generator: Adobe Illustrator 21.0.0, SVG Export Plug-In . SVG Version: 6.00 Build 0)  -->
<svg version="1.1" id="icon-map" xmlns="http://www.w3.org/2000/svg" xmlns:xlink="http://www.w3.org/1999/xlink" x="0px" y="0px"
	 viewBox="0 0 68 68" style="enable-background:new 0 0 68 68;" xml:space="preserve">
<g>
	<path d="M50.4,51.8L34,56.1l-16.4-4.3L0.5,56.1l7.1-39.2l13.5-2.1l2.6,0.4c-0.3,0.6-0.6,1.2-0.9,1.8l-1-0.1L19,50.4l14.2,3.6v-8.7
		c0.4,0.6,0.7,0.9,0.7,0.9s0.3-0.3,0.7-0.9v8.7L49,50.4l-2.8-33.5l-1,0.1c-0.3-0.6-0.5-1.3-0.9-1.8l2.6-0.4l13.5,2.1l7.1,39.2
		L50.4,51.8z M19.8,16.9L9.1,18.3L2.7,53.9l14.2-3.6L19.8,16.9z M58.9,18.3l-10.7-1.4l2.8,33.5l14.2,3.6L58.9,18.3z M34,44
		c0,0-10.7-15.6-10.7-21.4S28.4,11.9,34,11.9s10.7,4.9,10.7,10.7S34,44,34,44z M34,19c-2,0-3.7,1.7-3.7,3.7c0,2,1.7,3.7,3.7,3.7
		s3.7-1.7,3.7-3.7C37.7,20.7,36,19,34,19z"/>
</g>
</svg>
