<?xml version="1.0" encoding="utf-8"?>
<!-- Generator: Adobe Illustrator 21.0.0, SVG Export Plug-In . SVG Version: 6.00 Build 0)  -->
<svg version="1.1" id="Layer_1" xmlns="http://www.w3.org/2000/svg" xmlns:xlink="http://www.w3.org/1999/xlink" x="0px" y="0px"
	 viewBox="0 0 161.7 161.7" enable-background="new 0 0 161.7 161.7" xml:space="preserve">
<g>
	<g>
		<path fill="#FFFFFF" d="M80.8,0C36.2,0,0,36.2,0,80.8s36.2,80.8,80.8,80.8s80.8-36.2,80.8-80.8C161.7,36.2,125.5,0,80.8,0z"/>
	</g>
	<path fill="#333333" d="M72.6,28.1c2.4-2.4,5.3-3.6,8.7-3.6c3.4,0,6.1,1.2,8.5,3.6s3.6,5.3,3.6,8.7c0,3.4-1.2,6.3-3.6,8.7
		s-5.3,3.6-8.5,3.6c-3.4,0-6.3-1.2-8.7-3.6S69,40.2,69,36.8C69.1,33.4,70.1,30.4,72.6,28.1z M99.6,133.4H61.9v-3.8
		c2.8-0.4,4.8-1.2,5.7-2.2c1.6-1.4,2.4-4,2.4-7.5V73.8c0-3.2-0.6-5.3-1.6-6.5s-3.2-2-6.3-2.6v-3.8h30.3v59.8c0,3.4,0.6,5.7,1.6,6.5
		c1,1,3,1.8,5.7,2.4L99.6,133.4L99.6,133.4L99.6,133.4z"/>
</g>
</svg>
