<?xml version="1.0" encoding="utf-8"?>
<!-- Generator: Adobe Illustrator 21.0.0, SVG Export Plug-In . SVG Version: 6.00 Build 0)  -->
<svg version="1.1" id="icon-cluster" xmlns="http://www.w3.org/2000/svg" xmlns:xlink="http://www.w3.org/1999/xlink" x="0px"
	 y="0px" viewBox="0 0 68 68" style="enable-background:new 0 0 68 68;" xml:space="preserve">
<circle class="icon-bg" cx="34" cy="34" r="34"/>
<g>
	<g>
		<path class="st1" d="M44.5,24.1c0-6.7-5.5-12.2-12.2-12.2c-6.7,0-12.2,5.5-12.2,12.2s5.5,12.2,12.2,12.2
			C39,36.3,44.5,30.8,44.5,24.1z M32.3,34.3c-5.6,0-10.2-4.6-10.2-10.2s4.6-10.2,10.2-10.2s10.2,4.6,10.2,10.2S37.9,34.3,32.3,34.3z
			"/>
		<path class="st1" d="M22.5,36.9c-3.6,0-6.6,2.9-6.6,6.6s2.9,6.6,6.6,6.6s6.6-2.9,6.6-6.6S26.2,36.9,22.5,36.9z M22.5,48.1
			c-2.5,0-4.6-2.1-4.6-4.6c0-2.5,2.1-4.6,4.6-4.6c2.5,0,4.6,2.1,4.6,4.6C27.1,46,25.1,48.1,22.5,48.1z"/>
		<path class="st1" d="M42.6,37.2c-5.2,0-9.5,4.3-9.5,9.5s4.3,9.5,9.5,9.5s9.5-4.3,9.5-9.5S47.8,37.2,42.6,37.2z M42.6,54.2
			c-4.1,0-7.5-3.4-7.5-7.5c0-4.1,3.4-7.5,7.5-7.5s7.5,3.4,7.5,7.5C50.1,50.8,46.7,54.2,42.6,54.2z"/>
	</g>
</g>
</svg>
