<?xml version="1.0" encoding="utf-8"?>
<!-- Generator: Adobe Illustrator 21.0.0, SVG Export Plug-In . SVG Version: 6.00 Build 0)  -->
<svg version="1.1" id="icon-map" xmlns="http://www.w3.org/2000/svg" xmlns:xlink="http://www.w3.org/1999/xlink" x="0px" y="0px"
	 viewBox="0 0 68 68" style="enable-background:new 0 0 68 68;" xml:space="preserve">
<circle class="current-bg" cx="34" cy="34" r="34"/>
<g>
	<path class="st1" d="M41.4,35c2.3-4.2,4.3-8.7,4.3-11.4c0-6.5-5.2-11.7-11.7-11.7c-6.5,0-11.7,5.2-11.7,11.7c0,2.7,2,7.2,4.3,11.4
		h-4.7l-4.8,21.2h17.1h0.3h16.3L46.1,35H41.4z M34,13.8c5.4,0,9.7,4.4,9.7,9.7c0,4.2-6.4,14.8-9.7,19.9c-3.3-5.1-9.7-15.7-9.7-19.9
		C24.3,18.2,28.6,13.8,34,13.8z M34.5,54.2h-0.3H19.6l3.9-17.2h4.2c2.6,4.6,5.3,8.5,5.5,8.9L34,47l0.8-1.2c0.2-0.3,2.9-4.2,5.5-8.9
		h4.2l3.9,17.2H34.5z"/>
	<path class="st1" d="M38.6,23.6c0-2.5-2.1-4.6-4.6-4.6s-4.6,2.1-4.6,4.6c0,2.5,2.1,4.6,4.6,4.6S38.6,26.1,38.6,23.6z M31.4,23.6
		c0-1.4,1.2-2.6,2.6-2.6s2.6,1.2,2.6,2.6s-1.2,2.6-2.6,2.6S31.4,25,31.4,23.6z"/>
</g>
</svg>
