<?xml version="1.0" encoding="utf-8"?>
<!-- Generator: Adobe Illustrator 19.0.0, SVG Export Plug-In . SVG Version: 6.00 Build 0)  -->
<svg version="1.1" id="Layer_1" xmlns="http://www.w3.org/2000/svg" xmlns:xlink="http://www.w3.org/1999/xlink" x="0px" y="0px"
	 viewBox="0 0 608 608" enable-background="new 0 0 608 608" xml:space="preserve">
<g>
	<path id="XMLID_67_" fill="none" d="M422,581.8H83V339.8h231v-18.1H51.6C27.6,321.8,8,341.4,8,365.4v190.8
		c0,24.1,19.6,43.6,43.6,43.6h401.6c24.1,0,43.6-19.6,43.6-43.6v-51.1h-75V581.8z"/>
	<path id="XMLID_66_" fill="none" d="M314,453.4V343.8H87v233.9h331v-72.7h-52.4C337.1,505.1,314,481.9,314,453.4z"/>
	<path id="XMLID_65_" fill="#555555" d="M496.9,556.2c0,24.1-19.6,43.6-43.6,43.6H51.6C27.6,599.8,8,580.2,8,556.2V365.4
		c0-24.1,19.6-43.6,43.6-43.6H314v-8H51.6C23.2,313.8,0,336.9,0,365.4v190.8c0,28.5,23.2,51.6,51.6,51.6h401.6
		c28.5,0,51.6-23.2,51.6-51.6v-51.1h-8V556.2z"/>
	<polygon id="XMLID_64_" fill="#555555" points="418,577.8 87,577.8 87,343.8 314,343.8 314,339.8 83,339.8 83,581.8 422,581.8 
		422,505.1 418,505.1 	"/>
	<path id="XMLID_63_" fill="#555555" d="M286.4,83.6l1.8-2.1l-2.5-1.8C175.3,93.8,89,183.7,79.7,294.9l4,0.3
		C92.8,185.8,177.8,97.3,286.4,83.6z"/>
	<path id="XMLID_62_" fill="#555555" d="M289.9,83.2c-1.2,0.1-2.3,0.3-3.5,0.4l-10.9,13l3.1,2.6L294,80.7l-19.5-14l-2.3,3.3
		l13.5,9.7c1.3-0.2,2.5-0.3,3.8-0.5L289.9,83.2z"/>
	<path id="XMLID_61_" fill="#555555" d="M286.4,83.6c1.2-0.1,2.3-0.3,3.5-0.4l-0.4-4c-1.3,0.1-2.6,0.3-3.8,0.5l2.5,1.8L286.4,83.6z"
		/>
	<path id="XMLID_60_" fill="none" d="M461,439.9c-11.7,0-21.2,9.5-21.2,21.2s9.5,21.2,21.2,21.2s21.2-9.5,21.2-21.2
		S472.7,439.9,461,439.9z"/>
	<path fill="none" d="M461,486.4c-13.9,0-25.2-11.3-25.2-25.2s11.3-25.2,25.2-25.2c13.9,0,25.2,11.3,25.2,25.2
		S474.9,486.4,461,486.4z"/>
	<path fill="#1DC9A0" d="M556.4,0.2H365.6c-28.5,0-51.6,23.2-51.6,51.6v401.6c0,28.5,23.2,51.6,51.6,51.6H418h4h75h8h51.5
		c28.5,0,51.6-23.2,51.6-51.6V51.8C608,23.3,584.8,0.2,556.4,0.2z M600,453.4c0,24.1-19.6,43.6-43.6,43.6H365.6
		c-24.1,0-43.6-19.6-43.6-43.6V51.8c0-24.1,19.6-43.6,43.6-43.6h190.8c24.1,0,43.6,19.6,43.6,43.6V453.4z"/>
	<path fill="#1DC9A0" d="M340,83.1v339h241.9v-339H340z M577.9,418.1H344v-331h233.9V418.1z"/>
	<path fill="#1DC9A0" d="M461,435.9c-13.9,0-25.2,11.3-25.2,25.2s11.3,25.2,25.2,25.2c13.9,0,25.2-11.3,25.2-25.2
		S474.9,435.9,461,435.9z M461,482.4c-11.7,0-21.2-9.5-21.2-21.2s9.5-21.2,21.2-21.2s21.2,9.5,21.2,21.2S472.7,482.4,461,482.4z"/>
</g>
</svg>
